<?xml version="1.0" encoding="UTF-8"?>
<svg width="110px" height="110px" viewBox="0 0 110 110" version="1.1" xmlns="http://www.w3.org/2000/svg" xmlns:xlink="http://www.w3.org/1999/xlink">
    <!-- Generator: Sketch 41.2 (35397) - http://www.bohemiancoding.com/sketch -->
    <title>logo</title>
    <desc>Created with Sketch.</desc>
    <defs></defs>
    <g id="Symbols" stroke="none" stroke-width="1" fill="none" fill-rule="evenodd">
        <g id="LOGO" fill="#777777">
            <g id="logo">
                <path d="M52.742963,101.93507 C53.134076,101.419411 53.867402,100.280684 54.942963,98.5188517 C56.0185239,96.7570199 57.2774002,94.6836757 58.7196296,92.298757 C60.1618591,89.9138383 61.6896216,87.3463292 63.302963,84.5961527 C64.9163044,81.8459762 66.456289,79.1925254 67.922963,76.6357206 C69.389637,74.0789159 70.6974017,71.7907174 71.8462963,69.7710565 C72.9951909,67.7513956 73.8140716,66.2689008 74.302963,65.3235277 C74.7429652,65.4954137 75.3540702,65.5813554 76.1362963,65.5813554 C76.9185224,65.5813554 77.5296274,65.4954137 77.9696296,65.3235277 C78.0185188,66.0540433 78.1285177,67.2249993 78.2996296,68.8364309 C78.4707416,70.4478625 78.6785173,72.317095 78.922963,74.4441847 C79.1674086,76.5712743 79.4362948,78.8809582 79.7296296,81.3733057 C80.0229644,83.8656532 80.340739,86.3472206 80.682963,88.8180823 C81.0251869,91.288944 81.3796278,93.6845696 81.7462963,96.0050311 C82.1129648,98.3254925 82.4674057,100.388094 82.8096296,102.192897 L83.322963,102.192897 C83.714076,101.591296 84.3740694,100.53851 85.302963,99.0345073 C86.2318565,97.5305045 87.3074013,95.7364709 88.5296296,93.6523528 C89.751858,91.5682346 91.0718448,89.3015216 92.4896296,86.8521456 C93.9074145,84.4027696 95.3251781,81.9104596 96.742963,79.3751406 C98.1607478,76.8398216 99.5051788,74.3582542 100.776296,71.930364 C102.047414,69.5024738 103.147403,67.300217 104.076296,65.3235277 C104.662966,65.4954137 105.469624,65.5813554 106.496296,65.5813554 C107.571857,65.5813554 108.476293,65.4954137 109.20963,65.3235277 C108.818517,65.8821573 108.2563,66.7308318 107.522963,67.8695768 C106.789626,69.0083218 105.995189,70.2544768 105.13963,71.6080793 C104.28407,72.9616818 103.404079,74.3689776 102.49963,75.8300089 C101.595181,77.2910402 100.764078,78.6338796 100.006296,79.8585676 C99.2485147,81.0832556 98.6129655,82.125299 98.0996296,82.9847292 C97.5862937,83.8441594 97.2807412,84.3598097 97.182963,84.5316958 C94.6896172,88.6999321 92.2451972,92.8466204 89.8496296,96.9718852 C87.4540621,101.09715 85.0096421,105.200867 82.5162963,109.283161 C81.9296267,109.240189 81.2451891,109.218704 80.462963,109.218704 L79.4362963,109.218704 C79.1429615,109.218704 78.8007427,109.240189 78.4096296,109.283161 C78.3607405,108.552645 78.2018532,107.166835 77.932963,105.125688 C77.6640727,103.084541 77.3462981,100.7856 76.9796296,98.2287955 C76.6129611,95.6719908 76.234076,93.0077972 75.842963,90.236135 C75.4518499,87.4644727 75.0729648,84.918449 74.7062963,82.5979876 C74.3396278,80.2775261 74.0462974,78.3438373 73.8262963,76.796863 C73.6062952,75.2498887 73.4962963,74.4119568 73.4962963,74.2830423 L72.8362963,74.2830423 C72.1029593,75.443273 71.4796322,76.4208602 70.9662963,77.2158331 C70.4529604,78.010806 69.9029659,78.880966 69.3162963,79.8263392 C68.7296267,80.7717123 68.0451891,81.8889548 67.262963,83.1781 C66.4807368,84.4672453 65.4785246,86.1645944 64.2562963,88.2701983 C63.9140724,88.8288279 63.3274116,89.7741869 62.4962963,91.1063036 C61.665181,92.4384204 60.7974119,93.8457162 59.892963,95.3282332 C58.988514,96.8107502 58.1451891,98.1965606 57.362963,99.4857058 C56.5807368,100.774851 56.0429644,101.677239 55.7496296,102.192897 C55.0651818,103.439071 54.3807442,104.695969 53.6962963,105.963628 C53.0118484,107.231288 52.4007434,108.337788 51.862963,109.283161 C51.6185173,109.240189 51.3496311,109.218704 51.0562963,109.218704 L48.7462963,109.218704 C48.3796278,109.218704 48.0496311,109.240189 47.7562963,109.283161 C47.658518,107.951044 47.4874086,106.103297 47.242963,103.739864 C46.9985173,101.376431 46.7051869,98.7766937 46.362963,95.9405741 C46.020739,93.1044546 45.654076,90.1609504 45.262963,87.1099734 C44.8718499,84.0589963 44.4807427,81.1369776 44.0896296,78.3438295 C43.6985166,75.5506815 43.3318536,73.0046578 42.9896296,70.7056822 C42.6474057,68.4067065 42.3540753,66.6126729 42.1096296,65.3235277 C42.8429666,65.4954137 43.8207346,65.5813554 45.042963,65.5813554 C46.2163022,65.5813554 47.291847,65.4954137 48.2696296,65.3235277 C48.3185188,66.7845589 48.4162956,68.4711653 48.562963,70.3833975 C48.7096304,72.2956296 48.8929619,74.3474883 49.112963,76.5390352 C49.3329641,78.7305821 49.5774061,80.9758098 49.8462963,83.2747854 C50.1151865,85.5737611 50.3962948,87.8404742 50.6896296,90.0749926 C50.9829644,92.309511 51.2640727,94.4365688 51.532963,96.4562297 C51.8018532,98.4758905 52.0585173,100.302152 52.302963,101.93507 L52.742963,101.93507 Z" id="W"></path>
                <path d="M62.48,71.7047647 C62.1377761,72.4352804 61.8933341,73.0261297 61.7466667,73.4773306 C61.5999993,73.9285314 61.4533341,74.4764099 61.3066667,75.1209825 C60.0355492,75.6796121 58.2022342,76.2812042 55.8066667,76.9257769 C53.4110991,77.5703495 50.4289067,77.892631 46.86,77.892631 C43.7799846,77.892631 40.8100143,77.548864 37.95,76.8613199 C35.0899857,76.1737758 32.5722331,75.0457906 30.3966667,73.4773306 C28.2211002,71.9088705 26.4733399,69.8999827 25.1533333,67.4506067 C23.8333267,65.0012307 23.1733333,62.0577266 23.1733333,58.6200059 C23.1733333,55.0103992 23.8944372,51.615701 25.3366667,48.4358094 C26.7788961,45.2559178 28.8566531,42.4735544 31.57,40.0886357 C34.2833469,37.703717 37.6077581,35.8237417 41.5433333,34.4486534 C45.4789086,33.0735652 49.9155309,32.3860314 54.8533333,32.3860314 C57.3466791,32.3860314 59.7544328,32.5579148 62.0766667,32.9016869 C64.3989005,33.245459 66.659989,33.9115073 68.86,34.899852 C68.2244413,35.9311682 67.7477794,36.8013282 67.43,37.5103581 C67.1122206,38.219388 66.8800007,38.7887519 66.7333333,39.218467 C66.3911094,38.9176664 65.8777812,38.5094432 65.1933333,37.9937851 C64.5088855,37.478127 63.6288943,36.9732194 62.5533333,36.4790471 C61.4777724,35.9848747 60.1944519,35.5551661 58.7033333,35.1899083 C57.2122148,34.8246504 55.4888987,34.6420243 53.5333333,34.6420243 C49.6710918,34.6420243 46.2489038,35.3295581 43.2666667,36.7046463 C40.2844295,38.0797346 37.7911211,39.916739 35.7866667,42.2157147 C33.7822122,44.5146904 32.2544497,47.1359131 31.2033333,50.0794614 C30.152217,53.0230097 29.6266667,56.0631983 29.6266667,59.2001184 C29.6266667,62.2510955 30.0544402,64.6682065 30.91,66.4515241 C31.7655598,68.2348417 32.7555499,69.6636229 33.88,70.7379106 C35.6400088,72.4137994 37.6933216,73.6384691 40.04,74.4119562 C42.3866784,75.1854433 44.8066542,75.5721811 47.3,75.5721811 C49.9400132,75.5721811 52.5188763,75.1961861 55.0366667,74.4441847 C57.554457,73.6921833 59.9377665,72.6716253 62.1866667,71.38248 L62.48,71.7047647 Z" id="C"></path>
                <path d="M31.4437037,8.02130808 L18.6837037,25.1023972 C21.4703843,25.2313117 24.3059115,25.295768 27.1903704,25.295768 C30.0259401,25.295768 32.8614673,25.2313117 35.697037,25.1023972 L31.6637037,8.02130808 L31.4437037,8.02130808 Z M46.257037,44.8262208 C45.7681457,44.7832493 45.2548175,44.7617638 44.717037,44.7617638 L41.087037,44.7617638 C40.5737011,44.7617638 40.072595,44.7832493 39.5837037,44.8262208 C39.4370363,43.7949046 39.2170385,42.4520651 38.9237037,40.797662 C38.6303689,39.143259 38.3248164,37.478138 38.007037,35.8022492 C37.6892577,34.1263604 37.3714831,32.5471811 37.0537037,31.0646641 C36.7359243,29.5821471 36.4792602,28.4326765 36.2837037,27.6162178 C35.5503667,27.5732463 34.2548241,27.5302754 32.397037,27.4873039 C30.53925,27.4443324 28.583714,27.422847 26.5303704,27.422847 C24.917029,27.422847 23.3037118,27.4443324 21.6903704,27.4873039 L16.8503704,27.6162178 C16.1659225,28.475648 15.2981534,29.6680894 14.247037,31.193578 C13.1959207,32.7190665 12.1081538,34.3304739 10.9837037,36.0278485 C9.85925364,37.725223 8.78370884,39.3796013 7.75703704,40.9910328 C6.73036524,42.6024644 5.92370664,43.8808476 5.33703704,44.8262208 C4.9948131,44.7832493 4.6525943,44.7617638 4.31037037,44.7617638 L1.81703704,44.7617638 C1.42592397,44.7617638 0.96148417,44.7832493 0.423703704,44.8262208 C4.62816917,39.4118107 8.77146107,33.9974819 12.8537037,28.5830719 C16.9359463,23.1686619 21.054794,17.6469059 25.2103704,12.0176384 C27.0192683,9.52529088 28.6203634,7.38749042 30.0137037,5.60417283 C31.407044,3.82085524 32.7392529,2.00533626 34.0103704,0.157561409 L35.4037037,0.157561409 C35.6481494,1.27482062 36.0392566,3.01514059 36.577037,5.37857354 C37.1148175,7.74200649 37.7259225,10.4062 38.4103704,13.3712341 C39.0948182,16.3362682 39.8159221,19.4623985 40.5737037,22.7497189 C41.3314853,26.0370392 42.0770334,29.1524268 42.8103704,32.0959751 C43.5437074,35.0395234 44.2159229,37.6607461 44.827037,39.9597218 C45.4381512,42.2586975 45.9148131,43.8808476 46.257037,44.8262208 Z" id="A"></path>
            </g>
        </g>
    </g>
</svg>